<svg width="30" height="30" viewBox="0 0 30 30" fill="none" xmlns="http://www.w3.org/2000/svg">
<path d="M24.7406 5.25967C22.0374 2.55645 17.626 2.54367 14.9227 5.24696L3.92429 16.2454C1.95038 18.2193 1.95674 21.4374 3.93064 23.4114C5.90455 25.3853 9.12272 25.3916 11.0966 23.4177L20.7035 13.8109C21.948 12.5664 21.948 10.5414 20.7035 9.29683C19.4589 8.05231 17.4339 8.05231 16.1894 9.29683L7.87253 17.6137C7.45704 18.0292 7.45704 18.7029 7.87253 19.1184C8.28802 19.5338 8.9617 19.5338 9.37719 19.1184L17.6941 10.8015C18.1089 10.3866 18.7839 10.3866 19.1987 10.8015C19.6136 11.2163 19.6136 11.8913 19.1987 12.3061L9.5919 21.913C8.44767 23.0572 6.5795 23.0508 5.43531 21.9066C4.29112 20.7624 4.28472 18.8943 5.42895 17.75L16.4274 6.75162C18.3009 4.87805 21.3623 4.89076 23.2359 6.76437C25.1095 8.63798 25.1223 11.6993 23.2487 13.5729L12.9546 23.867C12.5391 24.2825 12.5391 24.9562 12.9546 25.3717C13.3701 25.7872 14.0437 25.7872 14.4592 25.3717L24.7533 15.0776C27.4566 12.3743 27.4439 7.96293 24.7406 5.25967Z" fill="#A4A4AB"/>
</svg>
