<svg width="20" height="28" viewBox="0 0 20 28" fill="none" xmlns="http://www.w3.org/2000/svg">
<path d="M10 19.625C6.89828 19.625 4.375 17.1017 4.375 14V6.5C4.375 3.39828 6.89828 0.875 10 0.875C13.1017 0.875 15.625 3.39828 15.625 6.5V14C15.625 17.1017 13.1017 19.625 10 19.625ZM10 2.75C7.93234 2.75 6.25 4.43234 6.25 6.5V14C6.25 16.0677 7.93234 17.75 10 17.75C12.0677 17.75 13.75 16.0677 13.75 14V6.5C13.75 4.43234 12.0677 2.75 10 2.75ZM18.4375 12.125C17.9198 12.125 17.5 12.5448 17.5 13.0625V14C17.5 18.1355 14.1355 21.5 10 21.5C5.86445 21.5 2.5 18.1355 2.5 14V13.0625C2.5 12.5448 2.08023 12.125 1.5625 12.125C1.04477 12.125 0.625 12.5448 0.625 13.0625V14C0.625 18.8532 4.33164 22.8556 9.0625 23.3274V25.25H7.1875C6.66977 25.25 6.25 25.6698 6.25 26.1875C6.25 26.7052 6.66977 27.125 7.1875 27.125H12.8125C13.3302 27.125 13.75 26.7052 13.75 26.1875C13.75 25.6698 13.3302 25.25 12.8125 25.25H10.9375V23.3274C15.6684 22.8554 19.375 18.853 19.375 14V13.0625C19.375 12.5448 18.9552 12.125 18.4375 12.125Z" fill="#A4A4AB"/>
</svg>
